<svg width="32" height="26" viewBox="0 0 32 26" fill="none"
  xmlns="http://www.w3.org/2000/svg">
  <path d="M29.3333 0.0488892H2.66667C1.2 0.0488892 0 1.21449 0 2.63911V23.3609C0 24.7855 1.2 25.9511 2.66667 25.9511H29.3333C30.8 25.9511 32 24.7855 32 23.3609V2.63911C32 1.21449 30.8 0.0488892 29.3333 0.0488892ZM6.66667 21.0815C6.44913 21.0826 6.23351 21.042 6.03217 20.962C5.83082 20.882 5.64771 20.7642 5.49333 20.6153C5.18585 20.3111 5.01357 19.9019 5.01357 19.4756C5.01357 19.0493 5.18585 18.64 5.49333 18.3359L10.9867 13L5.49333 7.66415C4.85333 7.0425 4.85333 6.00641 5.49333 5.38475C6.13333 4.7631 7.2 4.7631 7.84 5.38475L13.5733 10.9278C14.7467 12.0675 14.7467 13.9066 13.5733 15.0463L7.84 20.6153C7.68562 20.7642 7.50251 20.882 7.30117 20.962C7.09982 21.042 6.8842 21.0826 6.66667 21.0815ZM25.3333 20.7707H14.6667C13.92 20.7707 13.3333 20.2008 13.3333 19.4756C13.3333 18.7503 13.92 18.1805 14.6667 18.1805H25.3333C26.08 18.1805 26.6667 18.7503 26.6667 19.4756C26.6667 20.2008 26.08 20.7707 25.3333 20.7707Z" fill="#A5EFAB"/>
</svg>
